<?xml version="1.0" encoding="utf-8"?><svg viewBox="0 0 100 100" xmlns="http://www.w3.org/2000/svg" width="38px" height="38px" xmlns:xlink="http://www.w3.org/1999/xlink" style="width:100%;height:100%;animation-play-state:paused" ><g class="ldl-scale" style="transform-origin:50% 50% 0px;transform:rotate(0deg) scale(1);animation-play-state:paused" ><g style="animation-play-state:paused" ><path stroke-miterlimit="10" stroke-linejoin="round" stroke-linecap="round" stroke-width="3" stroke="#323232" fill="none" d="M76.011 55.065l-4.037 9.747-5.373-2.225a20.702 20.702 0 0 1-4.017 4.01l2.228 5.378-9.747 4.037-2.228-5.378a20.668 20.668 0 0 1-5.676.005l-2.225 5.373-9.747-4.037 2.225-5.373a20.702 20.702 0 0 1-4.01-4.017l-5.378 2.228-4.037-9.747 5.378-2.228a20.668 20.668 0 0 1-.005-5.676l-5.373-2.225 4.037-9.747 5.373 2.225a20.702 20.702 0 0 1 4.017-4.01l-2.228-5.378 9.747-4.037 2.228 5.378a20.668 20.668 0 0 1 5.676-.005l2.225-5.373 9.747 4.037-2.225 5.373a20.702 20.702 0 0 1 4.01 4.017l5.378-2.228 4.037 9.747-5.378 2.227c.258 1.861.269 3.769.005 5.676l5.373 2.226z" style="stroke:rgb(62, 62, 60);animation-play-state:paused" ></path>
<circle stroke-miterlimit="10" stroke-linejoin="round" stroke-linecap="round" stroke-width="3" stroke="#323232" fill="none" r="12.173" cy="50" cx="50" style="stroke:rgb(62, 62, 60);animation-play-state:paused" ></circle></g>
<g style="animation-play-state:paused" ><path stroke-miterlimit="10" stroke-linejoin="round" stroke-linecap="round" stroke-width="3" stroke="#76a4bd" fill="none" d="M50 87.834c20.895 0 37.834-16.939 37.834-37.834a37.677 37.677 0 0 0-8.712-24.153" style="stroke:rgb(133, 187, 101);animation-play-state:paused" ></path>
<path d="M50 87.834l5.832 4.666" stroke-miterlimit="10" stroke-linejoin="round" stroke-linecap="round" stroke-width="3" stroke="#76a4bd" fill="none" style="stroke:rgb(133, 187, 101);animation-play-state:paused" ></path>
<path d="M50 87.834l4.666-5.832" stroke-miterlimit="10" stroke-linejoin="round" stroke-linecap="round" stroke-width="3" stroke="#76a4bd" fill="none" style="stroke:rgb(133, 187, 101);animation-play-state:paused" ></path></g>
<g style="animation-play-state:paused" ><path stroke-miterlimit="10" stroke-linejoin="round" stroke-linecap="round" stroke-width="3" stroke="#76a4bd" fill="none" d="M50 12.166c-20.895 0-37.834 16.939-37.834 37.834a37.677 37.677 0 0 0 8.712 24.153" style="stroke:rgb(133, 187, 101);animation-play-state:paused" ></path>
<path d="M50 12.166L44.168 7.5" stroke-miterlimit="10" stroke-linejoin="round" stroke-linecap="round" stroke-width="3" stroke="#76a4bd" fill="none" style="stroke:rgb(133, 187, 101);animation-play-state:paused" ></path>
<path d="M50 12.166l-4.666 5.832" stroke-miterlimit="10" stroke-linejoin="round" stroke-linecap="round" stroke-width="3" stroke="#76a4bd" fill="none" style="stroke:rgb(133, 187, 101);animation-play-state:paused" ></path></g></g></svg>
