<?xml version="1.0" encoding="utf-8"?><svg viewBox="0 0 100 100" xmlns="http://www.w3.org/2000/svg" width="38px" height="38px" xmlns:xlink="http://www.w3.org/1999/xlink" style="width:100%;height:100%;animation-play-state:paused" ><g class="ldl-scale" style="transform-origin:50% 50% 0px;transform:rotate(0deg) scale(1);animation-play-state:paused" ><g style="animation-play-state:paused" ><circle r="9.85" cy="34.961" cx="38.5" stroke-miterlimit="10" stroke-linejoin="round" stroke-linecap="round" stroke-width="3" stroke="#000" fill="#F8EAA3" style="stroke:rgb(62, 62, 60);fill:rgb(133, 187, 101);animation-play-state:paused" ></circle>
<g style="animation-play-state:paused" ><path d="M35.11 37.821c.235 1.217 1.663 2.153 3.39 2.153 1.891 0 3.424-1.122 3.424-2.506s-1.533-2.506-3.424-2.506-3.424-1.122-3.424-2.506c0-1.384 1.533-2.506 3.424-2.506s3.424 1.122 3.424 2.506" stroke-miterlimit="10" stroke-linejoin="round" stroke-linecap="round" stroke-width="3" stroke="#000" fill="none" style="stroke:rgb(62, 62, 60);animation-play-state:paused" ></path>
<path d="M38.604 39.962v2.249" stroke-miterlimit="10" stroke-linejoin="round" stroke-linecap="round" stroke-width="3" stroke="#000" fill="none" style="stroke:rgb(62, 62, 60);animation-play-state:paused" ></path>
<path d="M38.604 27.711v2.109" stroke-miterlimit="10" stroke-linejoin="round" stroke-linecap="round" stroke-width="3" stroke="#000" fill="none" style="stroke:rgb(62, 62, 60);animation-play-state:paused" ></path></g></g>
<g style="animation-play-state:paused" ><path d="M61.805 64.368c0-13.059-10.587-23.646-23.646-23.646S14.513 51.309 14.513 64.368a23.552 23.552 0 0 0 6.018 15.755l-2.523 10.998 8.667 1.988 1.659-7.233a23.551 23.551 0 0 0 9.824 2.138c3.506 0 6.831-.769 9.824-2.138l1.659 7.233 8.667-1.988-2.523-10.998a23.542 23.542 0 0 0 6.02-15.755z" stroke-miterlimit="10" stroke-linejoin="round" stroke-linecap="round" stroke-width="3" stroke="#000" fill="#FCE9F2" style="stroke:rgb(62, 62, 60);fill:rgb(232, 233, 201);animation-play-state:paused" ></path>
<path d="M57.919 41.453a8.128 8.128 0 0 0-9.905 5.831l15.736 4.074a8.128 8.128 0 0 0-5.831-9.905z" stroke-miterlimit="10" stroke-linejoin="round" stroke-linecap="round" stroke-width="3" stroke="#000" fill="#EF66B2" style="stroke:rgb(62, 62, 60);fill:rgb(95, 117, 139);animation-play-state:paused" ></path>
<path d="M18.536 41.453a8.128 8.128 0 0 1 9.905 5.831l-15.736 4.074a8.13 8.13 0 0 1 5.831-9.905z" stroke-miterlimit="10" stroke-linejoin="round" stroke-linecap="round" stroke-width="3" stroke="#000" fill="#EF66B2" style="stroke:rgb(62, 62, 60);fill:rgb(95, 117, 139);animation-play-state:paused" ></path>
<ellipse ry="5.659" rx="13.339" cy="69.219" cx="38.159" stroke-miterlimit="10" stroke-linejoin="round" stroke-linecap="round" stroke-width="3" stroke="#000" fill="#EF66B2" style="stroke:rgb(62, 62, 60);fill:rgb(95, 117, 139);animation-play-state:paused" ></ellipse>
<circle r="2.89" cy="58.227" cx="47.478" stroke-miterlimit="10" stroke-linejoin="round" stroke-linecap="round" stroke-width=".25" stroke="#000" transform="rotate(-80.689 47.478 58.228)" style="stroke:rgb(62, 62, 60);fill:rgb(62, 62, 60);animation-play-state:paused" ></circle>
<circle r="2.89" cy="58.227" cx="28.076" stroke-miterlimit="10" stroke-linejoin="round" stroke-linecap="round" stroke-width=".25" stroke="#000" transform="rotate(-80.689 28.075 58.228)" style="stroke:rgb(62, 62, 60);fill:rgb(62, 62, 60);animation-play-state:paused" ></circle>
<path d="M41.392 66.794h4.042v4.042h-4.042z" stroke-miterlimit="10" stroke-linejoin="round" stroke-linecap="round" stroke-width=".25" stroke="#000" style="stroke:rgb(62, 62, 60);fill:rgb(62, 62, 60);animation-play-state:paused" ></path>
<path d="M30.883 66.794h4.042v4.042h-4.042z" stroke-miterlimit="10" stroke-linejoin="round" stroke-linecap="round" stroke-width=".25" stroke="#000" style="stroke:rgb(62, 62, 60);fill:rgb(62, 62, 60);animation-play-state:paused" ></path></g>
<g style="animation-play-state:paused" ><path d="M40.222 10.299c-1.678.617-3.249 1.318-3.843 2.483-.368.722-.235 1.376-.083 1.789l.425.882c.188.214.486.52.91.818 2.62 1.845 6.449.878 8.039.544 2.977-.624 5.906-.586 8.896-.441 2.107.102 4.118.636 6.013 1.426.434.181 2.491.854 2.392 1.358-.062.314-1.137.256-3.231.386-3.691.23-5.605.738-6.129.884-2.862.797-3.427 1.518-3.645 1.92-.341.629-.53 1.588-.11 2.332.315.559.954.962 2.59 1.213 2.119.324 3.345-.001 5.114-.132 3.76-.278 4.133.755 7.819.317a19.1 19.1 0 0 0 3.67-.804 18.787 18.787 0 0 0 5.247-2.701 18.126 18.126 0 0 1 3.74-.667c.58-.042 1.131-.053 1.647-.042l-.297-11.532-6.15-.842c-.995-.239-7.856-1.872-12.826-2.402-1.874-.2-3.205-.214-4.186-.188a30.022 30.022 0 0 0-4.213.409c-2.997.514-7.6 1.448-11.789 2.99z" stroke-miterlimit="10" stroke-linejoin="round" stroke-linecap="round" stroke-width="3" stroke="#000" fill="#F8EDCF" style="stroke:rgb(62, 62, 60);fill:rgb(232, 233, 201);animation-play-state:paused" ></path>
<path d="M87.116 7.362l.437 16.942-7.732.2-.438-16.943z" stroke-miterlimit="10" stroke-linejoin="round" stroke-linecap="round" stroke-width="3.00009" stroke="#000" fill="#EE7D54" style="stroke:rgb(62, 62, 60);fill:rgb(34, 141, 87);animation-play-state:paused" ></path></g></g></svg>
