<?xml version="1.0" encoding="utf-8"?><svg viewBox="0 0 100 100" xmlns="http://www.w3.org/2000/svg" width="80px" height="80px" xmlns:xlink="http://www.w3.org/1999/xlink" style="width:100%;height:100%;animation-play-state:paused" ><g class="ldl-scale" style="transform-origin:50% 50% 0px;transform:rotate(0deg) scale(1);animation-play-state:paused" ><g style="animation-play-state:paused" ><g style="animation-play-state:paused" ><path d="M50.441 14.485c-.689-.834-2.749.953-4.52 0-2.588-1.393-1.603-7.048-2.712-7.232-1.181-.196-2.319 6.22-4.52 6.328-2.28.111-3.983-6.63-5.424-6.328-1.327.279-.271 6.079-2.712 7.232-1.936.914-4.897-1.647-5.424-.904-.297.418.904 3.12.904 3.12.139.368.824 1.385.904 1.704.07.278 3.966 5.005 4.132 5.111 0 0 0 0 0 0 .724.181 4.943.181 12.655 0l3.099-2.701s0 0 0 0c2.273-1.955 4.434-5.343 3.618-6.33z" stroke-miterlimit="10" stroke-linejoin="round" stroke-linecap="round" stroke-width="3" stroke="#000" fill="#CB9B0C" style="stroke:rgb(62, 62, 60);fill:rgb(34, 141, 87);animation-play-state:paused" ></path>
<path d="M47.794 31.198H27.002l3.669-7.684h13.453l3.67 7.684z" stroke-miterlimit="10" stroke-linejoin="round" stroke-linecap="round" stroke-width="3" stroke="#000" fill="#F8EAA3" style="stroke:rgb(62, 62, 60);fill:rgb(133, 187, 101);animation-play-state:paused" ></path>
<path d="M61.353 50.634c.024 7.105-4.078 12.001-5.424 13.56-.409.474-7.931 8.913-19.421 8.136-13.602-.921-22.158-14.043-22.162-19.888-.002-3.149.904-6.328.904-6.328.557-1.953 1.223-3.328 1.808-4.52.359-.732 1.32-2.628 5.424-8.136 3.223-4.325 4.077-5.139 5.424-5.424.628-.133.863-.05 3.616 0h5.424c8.133 0 8.1-.006 8.136 0 4.317.72 7.017 4.279 9.944 8.136 3.081 4.061 6.306 8.286 6.327 14.464z" stroke-miterlimit="10" stroke-linejoin="round" stroke-linecap="round" stroke-width="3" stroke="#000" fill="#CB9B0C" style="stroke:rgb(62, 62, 60);fill:rgb(34, 141, 87);animation-play-state:paused" ></path></g>
<g style="animation-play-state:paused" ><circle r="10.579" cy="48.403" cx="37.85" stroke-miterlimit="10" stroke-linejoin="round" stroke-linecap="round" stroke-width="3" stroke="#000" fill="#F8EAA3" style="stroke:rgb(62, 62, 60);fill:rgb(133, 187, 101);animation-play-state:paused" ></circle>
<g style="animation-play-state:paused" ><path d="M34.209 51.475c.252 1.307 1.786 2.312 3.641 2.312 2.031 0 3.678-1.205 3.678-2.692s-1.647-2.692-3.678-2.692-3.678-1.205-3.678-2.692 1.647-2.692 3.678-2.692 3.678 1.205 3.678 2.692" stroke-miterlimit="10" stroke-linejoin="round" stroke-linecap="round" stroke-width="3" stroke="#000" fill="none" style="stroke:rgb(62, 62, 60);animation-play-state:paused" ></path>
<path d="M37.962 53.774v2.416" stroke-miterlimit="10" stroke-linejoin="round" stroke-linecap="round" stroke-width="3" stroke="#000" fill="none" style="stroke:rgb(62, 62, 60);animation-play-state:paused" ></path>
<path d="M37.962 40.617v2.265" stroke-miterlimit="10" stroke-linejoin="round" stroke-linecap="round" stroke-width="3" stroke="#000" fill="none" style="stroke:rgb(62, 62, 60);animation-play-state:paused" ></path></g></g></g>
<g style="animation-play-state:paused" ><path d="M48.225 73.822c0-8.665-8.427-15.689-18.823-15.689-7.841 0-14.561 3.998-17.39 9.681h-1.956c-1.412 0-2.557 1.126-2.557 2.515v6.32c0 1.389 1.145 2.515 2.557 2.515h1.646c1.166 2.683 3.182 5.026 5.78 6.8l-1.251 4.541 8.593 2.252 1.155-4.247c.822.387 1.983.816 3.422 1.001 2.728.351 4.913-.373 5.989-.816l1.119 4.061 8.593-2.252-1.706-6.193c3.002-2.779 4.829-6.455 4.829-10.489z" stroke-miterlimit="10" stroke-linejoin="round" stroke-linecap="round" stroke-width="3" stroke="#000" fill="#FCE9F2" style="stroke:rgb(62, 62, 60);fill:rgb(232, 233, 201);animation-play-state:paused" ></path>
<path d="M34.754 64.388c-1.639-.914-3.361-1.308-5.079-1.071a7.265 7.265 0 0 0-.997.21" stroke-miterlimit="10" stroke-linejoin="round" stroke-linecap="round" stroke-width="3" stroke="#000" fill="#FFF" style="stroke:rgb(62, 62, 60);fill:rgb(232, 233, 201);animation-play-state:paused" ></path>
<path d="M21.567 56.603a5.26 5.26 0 0 0-7.402.758l8.16 6.645a5.263 5.263 0 0 0-.758-7.403z" stroke-miterlimit="10" stroke-linejoin="round" stroke-linecap="round" stroke-width="3" stroke="#000" fill="#EF66B2" style="stroke:rgb(62, 62, 60);fill:rgb(95, 117, 139);animation-play-state:paused" ></path>
<circle r="1.871" cy="69.048" cx="19.039" stroke-miterlimit="10" stroke-linejoin="round" stroke-linecap="round" stroke-width=".25" stroke="#000" transform="rotate(-45.001 19.038 69.049)" style="stroke:rgb(62, 62, 60);fill:rgb(62, 62, 60);animation-play-state:paused" ></circle>
<path d="M48.449 73.379c1.03-1.735 2.896-2.834 4.826-3.423 1.046-.319 2.317-.462 3.113.288.665.627.741 1.693.433 2.553-.311.869-1.047 1.647-1.966 1.737-.824.08-1.639-.424-2.06-1.137-.421-.713-.486-1.596-.323-2.407.345-1.716 1.732-3.178 3.427-3.614.541-.139 1.184-.133 1.666.104" stroke-miterlimit="10" stroke-linejoin="round" stroke-linecap="round" stroke-width="3" stroke="#000" fill="none" style="stroke:rgb(62, 62, 60);animation-play-state:paused" ></path></g>
<g style="animation-play-state:paused" ><g style="animation-play-state:paused" ><path d="M81.588 28.447c-.689-.834-2.749.953-4.52 0-2.588-1.393-1.603-7.048-2.712-7.232-1.181-.196-2.319 6.22-4.52 6.328-2.28.111-3.983-6.63-5.424-6.328-1.327.279-.271 6.079-2.712 7.232-1.936.914-4.897-1.647-5.424-.904-.297.418.904 3.12.904 3.12.139.368.824 1.385.904 1.704.07.278 3.966 5.005 4.132 5.111 0 0 0 0 0 0 .724.181 4.943.181 12.655 0l3.099-2.701s0 0 0 0c2.272-1.955 4.434-5.343 3.618-6.33z" stroke-miterlimit="10" stroke-linejoin="round" stroke-linecap="round" stroke-width="3" stroke="#000" fill="#CB9B0C" style="stroke:rgb(62, 62, 60);fill:rgb(34, 141, 87);animation-play-state:paused" ></path>
<path d="M78.94 45.16H58.148l3.669-7.684H75.27l3.67 7.684z" stroke-miterlimit="10" stroke-linejoin="round" stroke-linecap="round" stroke-width="3" stroke="#000" fill="#F8EAA3" style="stroke:rgb(62, 62, 60);fill:rgb(133, 187, 101);animation-play-state:paused" ></path>
<path d="M92.5 64.596c.024 7.105-4.078 12.001-5.424 13.56-.409.474-7.931 8.913-19.421 8.136-13.602-.921-22.158-14.043-22.162-19.888-.002-3.149.904-6.328.904-6.328.557-1.953 1.223-3.328 1.808-4.52.359-.732 1.32-2.628 5.424-8.136 3.223-4.325 4.077-5.139 5.424-5.424.628-.133.863-.05 3.616 0h5.424c8.133 0 8.1-.006 8.136 0 4.317.72 7.017 4.279 9.944 8.136 3.08 4.061 6.306 8.286 6.327 14.464z" stroke-miterlimit="10" stroke-linejoin="round" stroke-linecap="round" stroke-width="3" stroke="#000" fill="#CB9B0C" style="stroke:rgb(62, 62, 60);fill:rgb(34, 141, 87);animation-play-state:paused" ></path></g>
<g style="animation-play-state:paused" ><circle r="10.579" cy="62.366" cx="68.996" stroke-miterlimit="10" stroke-linejoin="round" stroke-linecap="round" stroke-width="3" stroke="#000" fill="#F8EAA3" style="stroke:rgb(62, 62, 60);fill:rgb(133, 187, 101);animation-play-state:paused" ></circle>
<g style="animation-play-state:paused" ><path d="M65.355 65.437c.252 1.307 1.786 2.312 3.641 2.312 2.031 0 3.678-1.205 3.678-2.692s-1.647-2.692-3.678-2.692c-2.031 0-3.678-1.205-3.678-2.692s1.647-2.692 3.678-2.692c2.031 0 3.678 1.205 3.678 2.692" stroke-miterlimit="10" stroke-linejoin="round" stroke-linecap="round" stroke-width="3" stroke="#000" fill="none" style="stroke:rgb(62, 62, 60);animation-play-state:paused" ></path>
<path d="M69.108 67.736v2.416" stroke-miterlimit="10" stroke-linejoin="round" stroke-linecap="round" stroke-width="3" stroke="#000" fill="none" style="stroke:rgb(62, 62, 60);animation-play-state:paused" ></path>
<path d="M69.108 54.579v2.265" stroke-miterlimit="10" stroke-linejoin="round" stroke-linecap="round" stroke-width="3" stroke="#000" fill="none" style="stroke:rgb(62, 62, 60);animation-play-state:paused" ></path></g></g></g></g></svg>
